<svg width="14" height="13" viewBox="0 0 14 13" fill="none" xmlns="http://www.w3.org/2000/svg">
<mask id="mask0" mask-type="alpha" maskUnits="userSpaceOnUse" x="0" y="0" width="14" height="14">
<path fill-rule="evenodd" clip-rule="evenodd" d="M0.333344 -6.10352e-05H13.9817V13.0006H0.333344V-6.10352e-05Z" fill="white"/>
</mask>
<g mask="url(#mask0)">
<path fill-rule="evenodd" clip-rule="evenodd" d="M1.54914 6.08202C2.48381 8.99002 6.17647 11.3414 7.15781 11.9234C8.14247 11.3354 11.8618 8.95802 12.7665 6.08469C13.3605 4.22735 12.8091 1.87469 10.6185 1.16869C9.55714 0.82802 8.31914 1.03535 7.46447 1.69669C7.28581 1.83402 7.03781 1.83669 6.85781 1.70069C5.95247 1.02002 4.76981 0.820687 3.69181 1.16869C1.50447 1.87402 0.955141 4.22669 1.54914 6.08202ZM7.15847 13.0007C7.0758 13.0007 6.9938 12.9807 6.91913 12.94C6.71046 12.826 1.79513 10.1167 0.597132 6.38735C0.596465 6.38735 0.596465 6.38668 0.596465 6.38668C-0.155535 4.03868 0.681798 1.08802 3.38513 0.216684C4.65447 -0.193982 6.0378 -0.0133157 7.15647 0.692684C8.24047 0.00735101 9.68046 -0.181982 10.9245 0.216684C13.6305 1.08935 14.4705 4.03935 13.7191 6.38668C12.5598 10.0734 7.60847 12.8233 7.39847 12.9387C7.3238 12.98 7.24113 13.0007 7.15847 13.0007Z" fill="#383B4B"/>
</g>
<path fill-rule="evenodd" clip-rule="evenodd" d="M11.1025 5.08329C10.8445 5.08329 10.6258 4.88529 10.6045 4.62395C10.5605 4.07595 10.1938 3.61329 9.67181 3.44462C9.40848 3.35929 9.26448 3.07729 9.34915 2.81529C9.43515 2.55262 9.71448 2.40995 9.97848 2.49262C10.8871 2.78662 11.5238 3.59129 11.6018 4.54262C11.6238 4.81795 11.4191 5.05929 11.1438 5.08129C11.1298 5.08262 11.1165 5.08329 11.1025 5.08329Z" fill="#383B4B"/>
</svg>
